<svg width="528" height="303" viewBox="0 0 528 303" fill="none" xmlns="http://www.w3.org/2000/svg">
<path d="M19.968 271.799L12.416 286.359V294.135H7.936V286.359L0.352 271.799H5.408L10.208 282.007L14.976 271.799H19.968ZM30.4238 294.423C28.7171 294.423 27.1811 294.049 25.8158 293.303C24.4504 292.535 23.3731 291.457 22.5838 290.071C21.8158 288.684 21.4318 287.084 21.4318 285.271C21.4318 283.457 21.8264 281.857 22.6158 280.471C23.4264 279.084 24.5251 278.017 25.9118 277.271C27.2984 276.503 28.8451 276.119 30.5518 276.119C32.2584 276.119 33.8051 276.503 35.1918 277.271C36.5784 278.017 37.6664 279.084 38.4558 280.471C39.2664 281.857 39.6718 283.457 39.6718 285.271C39.6718 287.084 39.2558 288.684 38.4237 290.071C37.6131 291.457 36.5038 292.535 35.0958 293.303C33.7091 294.049 32.1518 294.423 30.4238 294.423ZM30.4238 290.519C31.2344 290.519 31.9918 290.327 32.6958 289.943C33.4211 289.537 33.9971 288.94 34.4238 288.151C34.8504 287.361 35.0638 286.401 35.0638 285.271C35.0638 283.585 34.6158 282.295 33.7198 281.399C32.8451 280.481 31.7678 280.023 30.4878 280.023C29.2078 280.023 28.1304 280.481 27.2558 281.399C26.4024 282.295 25.9758 283.585 25.9758 285.271C25.9758 286.956 26.3918 288.257 27.2238 289.175C28.0771 290.071 29.1438 290.519 30.4238 290.519ZM59.694 276.407V294.135H55.182V291.895C54.606 292.663 53.8487 293.271 52.91 293.719C51.9927 294.145 50.99 294.359 49.902 294.359C48.5153 294.359 47.2887 294.071 46.222 293.495C45.1553 292.897 44.3127 292.033 43.694 290.903C43.0967 289.751 42.798 288.385 42.798 286.807V276.407H47.278V286.167C47.278 287.575 47.63 288.663 48.334 289.431C49.038 290.177 49.998 290.551 51.214 290.551C52.4513 290.551 53.422 290.177 54.126 289.431C54.83 288.663 55.182 287.575 55.182 286.167V276.407H59.694ZM68.5943 279.159C69.1703 278.22 69.9169 277.484 70.8343 276.951C71.7729 276.417 72.8396 276.151 74.0343 276.151V280.855H72.8503C71.4423 280.855 70.3756 281.185 69.6503 281.847C68.9463 282.508 68.5943 283.66 68.5943 285.303V294.135H64.1143V276.407H68.5943V279.159ZM95.0448 294.359C92.9541 294.359 91.0341 293.868 89.2848 292.887C87.5354 291.905 86.1488 290.551 85.1248 288.823C84.1008 287.073 83.5888 285.1 83.5888 282.903C83.5888 280.727 84.1008 278.775 85.1248 277.047C86.1488 275.297 87.5354 273.932 89.2848 272.951C91.0341 271.969 92.9541 271.479 95.0448 271.479C97.1568 271.479 99.0768 271.969 100.805 272.951C102.554 273.932 103.93 275.297 104.933 277.047C105.957 278.775 106.469 280.727 106.469 282.903C106.469 285.1 105.957 287.073 104.933 288.823C103.93 290.551 102.554 291.905 100.805 292.887C99.0554 293.868 97.1354 294.359 95.0448 294.359ZM95.0448 290.359C96.3888 290.359 97.5728 290.06 98.5968 289.463C99.6208 288.844 100.421 287.969 100.997 286.839C101.573 285.708 101.861 284.396 101.861 282.903C101.861 281.409 101.573 280.108 100.997 278.999C100.421 277.868 99.6208 277.004 98.5968 276.407C97.5728 275.809 96.3888 275.511 95.0448 275.511C93.7008 275.511 92.5061 275.809 91.4608 276.407C90.4368 277.004 89.6368 277.868 89.0608 278.999C88.4848 280.108 88.1968 281.409 88.1968 282.903C88.1968 284.396 88.4848 285.708 89.0608 286.839C89.6368 287.969 90.4368 288.844 91.4608 289.463C92.5061 290.06 93.7008 290.359 95.0448 290.359ZM114.282 279.159C114.858 278.22 115.604 277.484 116.522 276.951C117.46 276.417 118.527 276.151 119.722 276.151V280.855H118.538C117.13 280.855 116.063 281.185 115.338 281.847C114.634 282.508 114.282 283.66 114.282 285.303V294.135H109.802V276.407H114.282V279.159ZM121.587 285.207C121.587 283.415 121.939 281.825 122.643 280.439C123.369 279.052 124.35 277.985 125.587 277.239C126.825 276.492 128.201 276.119 129.715 276.119C130.867 276.119 131.966 276.375 133.011 276.887C134.057 277.377 134.889 278.039 135.507 278.871V270.455H140.051V294.135H135.507V291.511C134.953 292.385 134.174 293.089 133.171 293.623C132.169 294.156 131.006 294.423 129.683 294.423C128.19 294.423 126.825 294.039 125.587 293.271C124.35 292.503 123.369 291.425 122.643 290.039C121.939 288.631 121.587 287.02 121.587 285.207ZM135.539 285.271C135.539 284.183 135.326 283.255 134.899 282.487C134.473 281.697 133.897 281.1 133.171 280.695C132.446 280.268 131.667 280.055 130.835 280.055C130.003 280.055 129.235 280.257 128.531 280.663C127.827 281.068 127.251 281.665 126.803 282.455C126.377 283.223 126.163 284.14 126.163 285.207C126.163 286.273 126.377 287.212 126.803 288.023C127.251 288.812 127.827 289.42 128.531 289.847C129.257 290.273 130.025 290.487 130.835 290.487C131.667 290.487 132.446 290.284 133.171 289.879C133.897 289.452 134.473 288.855 134.899 288.087C135.326 287.297 135.539 286.359 135.539 285.271ZM160.907 284.887C160.907 285.527 160.864 286.103 160.779 286.615H147.819C147.925 287.895 148.373 288.897 149.163 289.623C149.952 290.348 150.923 290.711 152.075 290.711C153.739 290.711 154.923 289.996 155.627 288.567H160.459C159.947 290.273 158.965 291.681 157.515 292.791C156.064 293.879 154.283 294.423 152.171 294.423C150.464 294.423 148.928 294.049 147.563 293.303C146.219 292.535 145.163 291.457 144.395 290.071C143.648 288.684 143.275 287.084 143.275 285.271C143.275 283.436 143.648 281.825 144.395 280.439C145.141 279.052 146.187 277.985 147.531 277.239C148.875 276.492 150.421 276.119 152.171 276.119C153.856 276.119 155.36 276.481 156.683 277.207C158.027 277.932 159.061 278.967 159.787 280.311C160.533 281.633 160.907 283.159 160.907 284.887ZM156.267 283.607C156.245 282.455 155.829 281.537 155.019 280.855C154.208 280.151 153.216 279.799 152.043 279.799C150.933 279.799 149.995 280.14 149.227 280.823C148.48 281.484 148.021 282.412 147.851 283.607H156.267ZM168.657 279.159C169.233 278.22 169.979 277.484 170.897 276.951C171.835 276.417 172.902 276.151 174.097 276.151V280.855H172.913C171.505 280.855 170.438 281.185 169.713 281.847C169.009 282.508 168.657 283.66 168.657 285.303V294.135H164.177V276.407H168.657V279.159ZM203.267 271.799V294.135H198.787V284.631H189.219V294.135H184.739V271.799H189.219V280.983H198.787V271.799H203.267ZM206.525 285.207C206.525 283.415 206.877 281.825 207.581 280.439C208.306 279.052 209.277 277.985 210.493 277.239C211.73 276.492 213.106 276.119 214.621 276.119C215.943 276.119 217.095 276.385 218.077 276.919C219.079 277.452 219.879 278.124 220.477 278.935V276.407H224.989V294.135H220.477V291.543C219.901 292.375 219.101 293.068 218.077 293.623C217.074 294.156 215.911 294.423 214.589 294.423C213.095 294.423 211.73 294.039 210.493 293.271C209.277 292.503 208.306 291.425 207.581 290.039C206.877 288.631 206.525 287.02 206.525 285.207ZM220.477 285.271C220.477 284.183 220.263 283.255 219.837 282.487C219.41 281.697 218.834 281.1 218.109 280.695C217.383 280.268 216.605 280.055 215.773 280.055C214.941 280.055 214.173 280.257 213.469 280.663C212.765 281.068 212.189 281.665 211.741 282.455C211.314 283.223 211.101 284.14 211.101 285.207C211.101 286.273 211.314 287.212 211.741 288.023C212.189 288.812 212.765 289.42 213.469 289.847C214.194 290.273 214.962 290.487 215.773 290.487C216.605 290.487 217.383 290.284 218.109 289.879C218.834 289.452 219.41 288.855 219.837 288.087C220.263 287.297 220.477 286.359 220.477 285.271ZM236.148 294.423C234.698 294.423 233.396 294.167 232.244 293.655C231.092 293.121 230.175 292.407 229.492 291.511C228.831 290.615 228.468 289.623 228.404 288.535H232.916C233.002 289.217 233.332 289.783 233.908 290.231C234.506 290.679 235.242 290.903 236.116 290.903C236.97 290.903 237.631 290.732 238.1 290.391C238.591 290.049 238.836 289.612 238.836 289.079C238.836 288.503 238.538 288.076 237.94 287.799C237.364 287.5 236.436 287.18 235.156 286.839C233.834 286.519 232.746 286.188 231.892 285.847C231.06 285.505 230.335 284.983 229.716 284.279C229.119 283.575 228.82 282.625 228.82 281.431C228.82 280.449 229.098 279.553 229.652 278.743C230.228 277.932 231.039 277.292 232.084 276.823C233.151 276.353 234.399 276.119 235.828 276.119C237.94 276.119 239.626 276.652 240.884 277.719C242.143 278.764 242.836 280.183 242.964 281.975H238.676C238.612 281.271 238.314 280.716 237.78 280.311C237.268 279.884 236.575 279.671 235.7 279.671C234.89 279.671 234.26 279.82 233.812 280.119C233.386 280.417 233.172 280.833 233.172 281.367C233.172 281.964 233.471 282.423 234.068 282.743C234.666 283.041 235.594 283.351 236.852 283.671C238.132 283.991 239.188 284.321 240.02 284.663C240.852 285.004 241.567 285.537 242.164 286.263C242.783 286.967 243.103 287.905 243.124 289.079C243.124 290.103 242.836 291.02 242.26 291.831C241.706 292.641 240.895 293.281 239.828 293.751C238.783 294.199 237.556 294.423 236.148 294.423ZM267.099 282.679C268.357 282.913 269.392 283.543 270.203 284.567C271.013 285.591 271.419 286.764 271.419 288.087C271.419 289.281 271.12 290.337 270.523 291.255C269.947 292.151 269.104 292.855 267.995 293.367C266.885 293.879 265.573 294.135 264.059 294.135H254.427V271.799H263.643C265.157 271.799 266.459 272.044 267.547 272.535C268.656 273.025 269.488 273.708 270.043 274.583C270.619 275.457 270.907 276.449 270.907 277.559C270.907 278.86 270.555 279.948 269.851 280.823C269.168 281.697 268.251 282.316 267.099 282.679ZM258.907 281.015H263.003C264.069 281.015 264.891 280.78 265.467 280.311C266.043 279.82 266.331 279.127 266.331 278.231C266.331 277.335 266.043 276.641 265.467 276.151C264.891 275.66 264.069 275.415 263.003 275.415H258.907V281.015ZM263.419 290.487C264.507 290.487 265.349 290.231 265.947 289.719C266.565 289.207 266.875 288.481 266.875 287.543C266.875 286.583 266.555 285.836 265.915 285.303C265.275 284.748 264.411 284.471 263.323 284.471H258.907V290.487H263.419ZM291.469 284.887C291.469 285.527 291.427 286.103 291.341 286.615H278.381C278.488 287.895 278.936 288.897 279.725 289.623C280.515 290.348 281.485 290.711 282.637 290.711C284.301 290.711 285.485 289.996 286.189 288.567H291.021C290.509 290.273 289.528 291.681 288.077 292.791C286.627 293.879 284.845 294.423 282.733 294.423C281.027 294.423 279.491 294.049 278.125 293.303C276.781 292.535 275.725 291.457 274.957 290.071C274.211 288.684 273.837 287.084 273.837 285.271C273.837 283.436 274.211 281.825 274.957 280.439C275.704 279.052 276.749 277.985 278.093 277.239C279.437 276.492 280.984 276.119 282.733 276.119C284.419 276.119 285.923 276.481 287.245 277.207C288.589 277.932 289.624 278.967 290.349 280.311C291.096 281.633 291.469 283.159 291.469 284.887ZM286.829 283.607C286.808 282.455 286.392 281.537 285.581 280.855C284.771 280.151 283.779 279.799 282.605 279.799C281.496 279.799 280.557 280.14 279.789 280.823C279.043 281.484 278.584 282.412 278.413 283.607H286.829ZM311.219 284.887C311.219 285.527 311.177 286.103 311.091 286.615H298.131C298.238 287.895 298.686 288.897 299.475 289.623C300.265 290.348 301.235 290.711 302.387 290.711C304.051 290.711 305.235 289.996 305.939 288.567H310.771C310.259 290.273 309.278 291.681 307.827 292.791C306.377 293.879 304.595 294.423 302.483 294.423C300.777 294.423 299.241 294.049 297.875 293.303C296.531 292.535 295.475 291.457 294.707 290.071C293.961 288.684 293.587 287.084 293.587 285.271C293.587 283.436 293.961 281.825 294.707 280.439C295.454 279.052 296.499 277.985 297.843 277.239C299.187 276.492 300.734 276.119 302.483 276.119C304.169 276.119 305.673 276.481 306.995 277.207C308.339 277.932 309.374 278.967 310.099 280.311C310.846 281.633 311.219 283.159 311.219 284.887ZM306.579 283.607C306.558 282.455 306.142 281.537 305.331 280.855C304.521 280.151 303.529 279.799 302.355 279.799C301.246 279.799 300.307 280.14 299.539 280.823C298.793 281.484 298.334 282.412 298.163 283.607H306.579ZM324.313 276.151C326.425 276.151 328.132 276.823 329.433 278.167C330.735 279.489 331.385 281.345 331.385 283.735V294.135H326.905V284.343C326.905 282.935 326.553 281.857 325.849 281.111C325.145 280.343 324.185 279.959 322.969 279.959C321.732 279.959 320.751 280.343 320.025 281.111C319.321 281.857 318.969 282.935 318.969 284.343V294.135H314.489V276.407H318.969V278.615C319.567 277.847 320.324 277.249 321.241 276.823C322.18 276.375 323.204 276.151 324.313 276.151ZM351.079 271.799C353.425 271.799 355.484 272.257 357.255 273.175C359.047 274.092 360.423 275.404 361.383 277.111C362.364 278.796 362.855 280.759 362.855 282.999C362.855 285.239 362.364 287.201 361.383 288.887C360.423 290.551 359.047 291.841 357.255 292.759C355.484 293.676 353.425 294.135 351.079 294.135H343.271V271.799H351.079ZM350.919 290.327C353.265 290.327 355.079 289.687 356.359 288.407C357.639 287.127 358.279 285.324 358.279 282.999C358.279 280.673 357.639 278.86 356.359 277.559C355.079 276.236 353.265 275.575 350.919 275.575H347.751V290.327H350.919ZM368.48 274.295C367.691 274.295 367.029 274.049 366.496 273.559C365.984 273.047 365.728 272.417 365.728 271.671C365.728 270.924 365.984 270.305 366.496 269.815C367.029 269.303 367.691 269.047 368.48 269.047C369.269 269.047 369.92 269.303 370.432 269.815C370.965 270.305 371.232 270.924 371.232 271.671C371.232 272.417 370.965 273.047 370.432 273.559C369.92 274.049 369.269 274.295 368.48 274.295ZM370.688 276.407V294.135H366.208V276.407H370.688ZM381.898 294.423C380.448 294.423 379.146 294.167 377.994 293.655C376.842 293.121 375.925 292.407 375.242 291.511C374.581 290.615 374.218 289.623 374.154 288.535H378.666C378.752 289.217 379.082 289.783 379.658 290.231C380.256 290.679 380.992 290.903 381.866 290.903C382.72 290.903 383.381 290.732 383.85 290.391C384.341 290.049 384.586 289.612 384.586 289.079C384.586 288.503 384.288 288.076 383.69 287.799C383.114 287.5 382.186 287.18 380.906 286.839C379.584 286.519 378.496 286.188 377.642 285.847C376.81 285.505 376.085 284.983 375.466 284.279C374.869 283.575 374.57 282.625 374.57 281.431C374.57 280.449 374.848 279.553 375.402 278.743C375.978 277.932 376.789 277.292 377.834 276.823C378.901 276.353 380.149 276.119 381.578 276.119C383.69 276.119 385.376 276.652 386.634 277.719C387.893 278.764 388.586 280.183 388.714 281.975H384.426C384.362 281.271 384.064 280.716 383.53 280.311C383.018 279.884 382.325 279.671 381.45 279.671C380.64 279.671 380.01 279.82 379.562 280.119C379.136 280.417 378.922 280.833 378.922 281.367C378.922 281.964 379.221 282.423 379.818 282.743C380.416 283.041 381.344 283.351 382.602 283.671C383.882 283.991 384.938 284.321 385.77 284.663C386.602 285.004 387.317 285.537 387.914 286.263C388.533 286.967 388.853 287.905 388.874 289.079C388.874 290.103 388.586 291.02 388.01 291.831C387.456 292.641 386.645 293.281 385.578 293.751C384.533 294.199 383.306 294.423 381.898 294.423ZM397.032 278.967C397.608 278.156 398.397 277.484 399.4 276.951C400.424 276.396 401.586 276.119 402.888 276.119C404.402 276.119 405.768 276.492 406.984 277.239C408.221 277.985 409.192 279.052 409.896 280.439C410.621 281.804 410.984 283.393 410.984 285.207C410.984 287.02 410.621 288.631 409.896 290.039C409.192 291.425 408.221 292.503 406.984 293.271C405.768 294.039 404.402 294.423 402.888 294.423C401.586 294.423 400.434 294.156 399.432 293.623C398.45 293.089 397.65 292.417 397.032 291.607V302.583H392.552V276.407H397.032V278.967ZM406.408 285.207C406.408 284.14 406.184 283.223 405.736 282.455C405.309 281.665 404.733 281.068 404.008 280.663C403.304 280.257 402.536 280.055 401.704 280.055C400.893 280.055 400.125 280.268 399.4 280.695C398.696 281.1 398.12 281.697 397.672 282.487C397.245 283.276 397.032 284.204 397.032 285.271C397.032 286.337 397.245 287.265 397.672 288.055C398.12 288.844 398.696 289.452 399.4 289.879C400.125 290.284 400.893 290.487 401.704 290.487C402.536 290.487 403.304 290.273 404.008 289.847C404.733 289.42 405.309 288.812 405.736 288.023C406.184 287.233 406.408 286.295 406.408 285.207ZM413.087 285.207C413.087 283.415 413.439 281.825 414.143 280.439C414.869 279.052 415.839 277.985 417.055 277.239C418.293 276.492 419.669 276.119 421.183 276.119C422.506 276.119 423.658 276.385 424.639 276.919C425.642 277.452 426.442 278.124 427.039 278.935V276.407H431.551V294.135H427.039V291.543C426.463 292.375 425.663 293.068 424.639 293.623C423.637 294.156 422.474 294.423 421.151 294.423C419.658 294.423 418.293 294.039 417.055 293.271C415.839 292.503 414.869 291.425 414.143 290.039C413.439 288.631 413.087 287.02 413.087 285.207ZM427.039 285.271C427.039 284.183 426.826 283.255 426.399 282.487C425.973 281.697 425.397 281.1 424.671 280.695C423.946 280.268 423.167 280.055 422.335 280.055C421.503 280.055 420.735 280.257 420.031 280.663C419.327 281.068 418.751 281.665 418.303 282.455C417.877 283.223 417.663 284.14 417.663 285.207C417.663 286.273 417.877 287.212 418.303 288.023C418.751 288.812 419.327 289.42 420.031 289.847C420.757 290.273 421.525 290.487 422.335 290.487C423.167 290.487 423.946 290.284 424.671 289.879C425.397 289.452 425.973 288.855 426.399 288.087C426.826 287.297 427.039 286.359 427.039 285.271ZM441.143 280.087V288.663C441.143 289.26 441.281 289.697 441.559 289.975C441.857 290.231 442.348 290.359 443.031 290.359H445.111V294.135H442.295C438.519 294.135 436.631 292.3 436.631 288.631V280.087H434.519V276.407H436.631V272.023H441.143V276.407H445.111V280.087H441.143ZM447.181 285.271C447.181 283.436 447.554 281.836 448.301 280.471C449.048 279.084 450.082 278.017 451.405 277.271C452.728 276.503 454.242 276.119 455.949 276.119C458.146 276.119 459.96 276.673 461.389 277.783C462.84 278.871 463.81 280.407 464.301 282.391H459.469C459.213 281.623 458.776 281.025 458.157 280.599C457.56 280.151 456.813 279.927 455.917 279.927C454.637 279.927 453.624 280.396 452.877 281.335C452.13 282.252 451.757 283.564 451.757 285.271C451.757 286.956 452.13 288.268 452.877 289.207C453.624 290.124 454.637 290.583 455.917 290.583C457.73 290.583 458.914 289.772 459.469 288.151H464.301C463.81 290.071 462.84 291.596 461.389 292.727C459.938 293.857 458.125 294.423 455.949 294.423C454.242 294.423 452.728 294.049 451.405 293.303C450.082 292.535 449.048 291.468 448.301 290.103C447.554 288.716 447.181 287.105 447.181 285.271ZM477.567 276.151C478.911 276.151 480.106 276.449 481.151 277.047C482.196 277.623 483.007 278.487 483.583 279.639C484.18 280.769 484.479 282.135 484.479 283.735V294.135H479.999V284.343C479.999 282.935 479.647 281.857 478.943 281.111C478.239 280.343 477.279 279.959 476.063 279.959C474.826 279.959 473.844 280.343 473.119 281.111C472.415 281.857 472.063 282.935 472.063 284.343V294.135H467.583V270.455H472.063V278.615C472.639 277.847 473.407 277.249 474.367 276.823C475.327 276.375 476.394 276.151 477.567 276.151ZM505.219 284.887C505.219 285.527 505.177 286.103 505.091 286.615H492.131C492.238 287.895 492.686 288.897 493.475 289.623C494.265 290.348 495.235 290.711 496.387 290.711C498.051 290.711 499.235 289.996 499.939 288.567H504.771C504.259 290.273 503.278 291.681 501.827 292.791C500.377 293.879 498.595 294.423 496.483 294.423C494.777 294.423 493.241 294.049 491.875 293.303C490.531 292.535 489.475 291.457 488.707 290.071C487.961 288.684 487.587 287.084 487.587 285.271C487.587 283.436 487.961 281.825 488.707 280.439C489.454 279.052 490.499 277.985 491.843 277.239C493.187 276.492 494.734 276.119 496.483 276.119C498.169 276.119 499.673 276.481 500.995 277.207C502.339 277.932 503.374 278.967 504.099 280.311C504.846 281.633 505.219 283.159 505.219 284.887ZM500.579 283.607C500.558 282.455 500.142 281.537 499.331 280.855C498.521 280.151 497.529 279.799 496.355 279.799C495.246 279.799 494.307 280.14 493.539 280.823C492.793 281.484 492.334 282.412 492.163 283.607H500.579ZM507.337 285.207C507.337 283.415 507.689 281.825 508.393 280.439C509.119 279.052 510.1 277.985 511.337 277.239C512.575 276.492 513.951 276.119 515.465 276.119C516.617 276.119 517.716 276.375 518.761 276.887C519.807 277.377 520.639 278.039 521.257 278.871V270.455H525.801V294.135H521.257V291.511C520.703 292.385 519.924 293.089 518.921 293.623C517.919 294.156 516.756 294.423 515.433 294.423C513.94 294.423 512.575 294.039 511.337 293.271C510.1 292.503 509.119 291.425 508.393 290.039C507.689 288.631 507.337 287.02 507.337 285.207ZM521.289 285.271C521.289 284.183 521.076 283.255 520.649 282.487C520.223 281.697 519.647 281.1 518.921 280.695C518.196 280.268 517.417 280.055 516.585 280.055C515.753 280.055 514.985 280.257 514.281 280.663C513.577 281.068 513.001 281.665 512.553 282.455C512.127 283.223 511.913 284.14 511.913 285.207C511.913 286.273 512.127 287.212 512.553 288.023C513.001 288.812 513.577 289.42 514.281 289.847C515.007 290.273 515.775 290.487 516.585 290.487C517.417 290.487 518.196 290.284 518.921 289.879C519.647 289.452 520.223 288.855 520.649 288.087C521.076 287.297 521.289 286.359 521.289 285.271Z" fill="black"/>
<g clip-path="url(#clip0_557_917)">
<path d="M113.031 219.604L-5.34058e-05 223.432L113.031 227.246V219.604Z" fill="#233A4C"/>
<path d="M109.2 211.324L38.4591 215.152L109.2 218.966V211.324Z" fill="#233A4C"/>
<path d="M109.2 198.162L56.5156 201.991L109.2 205.804V198.162Z" fill="#233A4C"/>
<path d="M403.019 219.604L290.003 223.432L403.019 227.246V219.604Z" fill="#233A4C"/>
<path d="M399.203 211.324L328.447 215.152L399.203 218.966V211.324Z" fill="#233A4C"/>
<path d="M399.203 198.162L346.504 201.991L399.203 205.804V198.162Z" fill="#233A4C"/>
<path d="M28.0351 170.251C28.0351 167.342 30.3951 164.984 33.3065 164.984C36.2178 164.984 38.5779 167.342 38.5779 170.251V190.254C38.5779 193.163 36.2178 195.521 33.3065 195.521C30.3951 195.521 28.0351 193.163 28.0351 190.254V170.251Z" fill="#11345B"/>
<path d="M350.112 39.3626V192.301H336.837V39.3626H350.112Z" fill="#11345B"/>
<path d="M350.112 195.506H506.443C508.463 195.506 510.096 193.874 510.096 191.856V123.303C510.096 120.172 508.463 117.264 505.805 115.632L495.321 109.207L472.81 48.1617C470.018 39.229 461.733 33.1305 452.348 33.1305H353.141C349.696 33.1305 346.919 35.9201 346.919 39.3477V192.286C346.919 194.052 348.36 195.492 350.127 195.492L350.112 195.506Z" fill="#11345B"/>
<path d="M373.826 170.667H346.905V39.3626C346.905 35.9201 349.696 33.1453 353.126 33.1453H452.333C461.703 33.1453 469.989 39.229 472.795 48.1766L495.306 109.221L505.79 115.646C508.463 117.279 510.081 120.187 510.081 123.318V191.871C510.081 193.889 508.448 195.521 506.428 195.521H458.199C458.406 193.785 458.525 192.019 458.525 190.239C458.525 165.622 438.553 145.664 413.919 145.664C396.308 145.664 381.072 155.873 373.826 170.682V170.667Z" fill="url(#paint0_linear_557_917)"/>
<g style="mix-blend-mode:multiply" opacity="0.5">
<path d="M355.027 170.667V44.2741C355.027 40.0748 358.442 36.662 362.645 36.662H452.333C460.203 36.662 467.078 41.707 469.395 49.1262L493.124 114.014V180.238C493.124 186.722 487.852 191.99 481.363 191.99H458.466C458.496 191.396 458.525 190.817 458.525 190.224C458.525 189.467 458.51 188.71 458.466 187.954H481.363C485.625 187.954 489.1 184.481 489.1 180.223V114.712L465.579 50.4023C463.752 44.5857 458.436 40.6832 452.333 40.6832H362.645C360.67 40.6832 359.066 42.2857 359.066 44.2592V170.637H355.027V170.667Z" fill="#315EFB"/>
</g>
<g style="mix-blend-mode:multiply" opacity="0.5">
<path d="M369.609 40.698H452.333C458.436 40.698 463.752 44.6005 465.549 50.3726L486.813 107.396C487.436 109.385 487.08 111.507 485.848 113.183C484.615 114.86 482.7 115.839 480.606 115.839H464.376C456.788 115.839 449.393 113.154 443.587 108.272L441.568 106.565C436.118 101.995 429.198 99.4727 422.071 99.4727H369.609C365.733 99.4727 362.585 96.3269 362.585 92.4541V47.7166C362.585 43.8438 365.733 40.698 369.609 40.698Z" fill="#315EFB"/>
</g>
<path d="M362.63 37.671H452.318C459.743 37.671 466.232 42.4341 468.43 49.4675L492.04 114.014L492.099 114.177V180.223C492.099 186.143 487.273 190.966 481.348 190.966H356.022V44.274C356.022 40.6387 358.992 37.671 362.63 37.671ZM358.041 188.963H481.363C486.189 188.963 490.109 185.045 490.109 180.223V114.534L466.544 50.1055C464.584 43.8734 458.882 39.6742 452.348 39.6742H362.659C360.135 39.6742 358.071 41.7367 358.071 44.2592V188.948L358.041 188.963Z" fill="#11345B"/>
<path d="M422.071 98.4637H369.609C366.283 98.4637 363.595 95.7779 363.595 92.4541V47.7166C363.595 44.3928 366.283 41.707 369.609 41.707H452.333C457.991 41.707 462.921 45.3276 464.613 50.7287L485.862 107.708C486.976 111.239 484.318 114.845 480.621 114.845H464.391C457.025 114.845 449.898 112.248 444.255 107.515L442.236 105.809C436.593 101.075 429.466 98.4785 422.1 98.4785L422.071 98.4637Z" fill="#11345B"/>
<g style="mix-blend-mode:multiply" opacity="0.5">
<path d="M364.916 109.236H381.043C382.527 109.236 383.73 110.438 383.73 111.922C383.73 113.406 382.527 114.608 381.043 114.608H364.916C363.432 114.608 362.229 113.406 362.229 111.922C362.229 110.438 363.432 109.236 364.916 109.236Z" fill="#315EFB"/>
</g>
<path d="M366.283 107.871H382.409C383.894 107.871 385.096 109.073 385.096 110.557C385.096 112.041 383.894 113.243 382.409 113.243H366.283C364.798 113.243 363.595 112.041 363.595 110.557C363.595 109.073 364.798 107.871 366.283 107.871Z" fill="#CFD6F5"/>
<path d="M499.865 181.707H513.734V152.371C513.734 149.656 516.065 147.504 518.827 147.757C521.233 147.979 523 150.146 523 152.564V185.416C523 187.33 522.035 189.022 520.55 190.016C519.659 190.61 518.59 190.966 517.446 190.966H499.672C496.955 190.966 494.802 188.636 495.054 185.876C495.277 183.472 497.445 181.707 499.865 181.707Z" fill="#11345B"/>
<path d="M373.826 170.667C370.93 176.573 369.312 183.205 369.312 190.224C369.312 192.019 369.431 193.77 369.639 195.506H350.127C348.36 195.506 346.919 194.067 346.919 192.301V170.667H373.841H373.826Z" fill="#11345B"/>
<path d="M480.383 86.4891L483.412 85.2427C483.62 85.1537 484.571 85.2427 484.571 85.2427C485.283 84.9459 485.862 86.5485 485.862 88.8336V109.414C485.862 111.685 485.283 113.777 484.571 114.074L481.541 115.32C481.333 115.409 480.383 115.32 480.383 115.32C479.67 115.617 479.091 114.014 479.091 111.729V91.1483C479.091 88.8781 479.67 86.7859 480.383 86.4891Z" fill="#C3CBEC"/>
<path d="M481.526 86.4891L484.556 85.2427C485.268 84.946 485.847 86.5485 485.847 88.8336V109.414C485.847 111.685 485.268 113.777 484.556 114.074L481.526 115.32C480.814 115.617 480.234 114.014 480.234 111.729V91.1484C480.234 88.8781 480.814 86.7859 481.526 86.4891Z" fill="#CFD6F5"/>
<path d="M373.826 170.667C381.072 155.858 396.307 145.65 413.918 145.65C414.542 145.65 415.151 145.664 415.76 145.694C398.965 146.406 384.592 156.392 377.598 170.667C374.702 176.573 373.083 183.205 373.083 190.224C373.083 192.019 373.202 193.77 373.41 195.506H369.624C369.416 193.77 369.297 192.004 369.297 190.224C369.297 183.205 370.93 176.573 373.811 170.667H373.826Z" fill="#CFD6F5"/>
<path d="M413.919 229.635C392.137 229.635 374.479 211.99 374.479 190.224C374.479 168.458 392.137 150.813 413.919 150.813C435.7 150.813 453.358 168.458 453.358 190.224C453.358 211.99 435.7 229.635 413.919 229.635Z" fill="#233A4C"/>
<path d="M413.919 226.786C393.711 226.786 377.33 210.416 377.33 190.224C377.33 170.031 393.711 153.662 413.919 153.662C434.126 153.662 450.507 170.031 450.507 190.224C450.507 210.416 434.126 226.786 413.919 226.786Z" fill="#294259"/>
<path d="M413.919 214.737C400.371 214.737 389.388 203.762 389.388 190.224C389.388 176.686 400.371 165.711 413.919 165.711C427.466 165.711 438.449 176.686 438.449 190.224C438.449 203.762 427.466 214.737 413.919 214.737Z" fill="#233A4C"/>
<path d="M413.918 211.398C402.216 211.398 392.729 201.918 392.729 190.224C392.729 178.53 402.216 169.05 413.918 169.05C425.621 169.05 435.108 178.53 435.108 190.224C435.108 201.918 425.621 211.398 413.918 211.398Z" fill="#CFD6F5"/>
<path d="M400.807 173.605C397.956 177.211 396.248 181.751 396.248 186.692C396.248 198.385 405.737 207.867 417.438 207.867C422.383 207.867 426.926 206.16 430.535 203.311C426.659 208.223 420.66 211.398 413.904 211.398C402.203 211.398 392.714 201.917 392.714 190.224C392.714 183.472 395.877 177.478 400.807 173.605Z" fill="#C3CCEE"/>
<path d="M52.7885 0.634521H327.126C335.663 0.634521 342.583 7.55025 342.583 16.0812V180.06C342.583 188.591 335.663 195.506 327.126 195.506H52.7885C44.2514 195.506 37.3306 188.591 37.3306 180.06V16.0812C37.3306 7.55025 44.2514 0.634521 52.7885 0.634521Z" fill="url(#paint1_linear_557_917)"/>
<path d="M58.9063 195.506H208.912C210.842 195.506 212.416 193.934 212.416 192.005V126.226C212.416 123.229 210.857 120.439 208.288 118.866L198.221 112.694L176.615 54.1119C173.927 45.5353 165.983 39.689 156.985 39.689H61.787C58.4905 39.689 55.8177 42.3599 55.8177 45.654V192.42C55.8177 194.126 57.1986 195.506 58.9063 195.506Z" fill="#11345B"/>
<path d="M58.7579 33.1453H157.965C167.335 33.1453 175.62 39.229 178.427 48.1766L200.938 109.221L211.422 115.646C214.094 117.279 215.713 120.187 215.713 123.318V191.871C215.713 193.889 214.08 195.521 212.06 195.521H163.83C164.038 193.785 164.157 192.019 164.157 190.239C164.157 165.622 144.185 145.664 119.55 145.664C101.939 145.664 86.7039 155.873 79.4576 170.682C76.562 176.587 74.9435 183.22 74.9435 190.239C74.9435 192.034 75.0623 193.785 75.2702 195.521H55.7584C53.9914 195.521 52.551 194.082 52.551 192.316V39.3626C52.551 35.9201 55.3427 33.1453 58.7728 33.1453H58.7579Z" fill="url(#paint2_linear_557_917)"/>
<path d="M37.3306 43.3986H342.583V87.053H37.3306V43.3986Z" fill="#CFD6F5"/>
<g style="mix-blend-mode:multiply" opacity="0.5">
<path d="M48.8535 10.3388H331.061C331.848 10.3388 332.471 10.9769 332.471 11.7484V184.392C332.471 185.179 331.833 185.802 331.061 185.802H48.8535C48.0665 185.802 47.4428 185.164 47.4428 184.392V11.7484C47.4428 10.962 48.0813 10.3388 48.8535 10.3388ZM49.4326 12.342V183.814H330.467V12.342H49.4326Z" fill="#315EFB"/>
</g>
<path d="M47.8439 10.2053H332.1C332.605 10.2053 333.021 10.6207 333.021 11.1252V185.016C333.021 185.52 332.605 185.936 332.1 185.936H47.8439C47.339 185.936 46.9232 185.52 46.9232 185.016V11.1252C46.9232 10.6207 47.339 10.2053 47.8439 10.2053ZM47.933 184.927H332.011V11.2143H47.933V184.941V184.927Z" fill="#11345B"/>
<path d="M119.535 229.635C97.7535 229.635 80.096 211.99 80.096 190.224C80.096 168.458 97.7535 150.813 119.535 150.813C141.317 150.813 158.974 168.458 158.974 190.224C158.974 211.99 141.317 229.635 119.535 229.635Z" fill="#233A4C"/>
<path d="M119.535 226.786C99.328 226.786 82.9469 210.416 82.9469 190.224C82.9469 170.031 99.328 153.662 119.535 153.662C139.742 153.662 156.123 170.031 156.123 190.224C156.123 210.416 139.742 226.786 119.535 226.786Z" fill="#294259"/>
<path d="M119.535 214.737C105.987 214.737 95.0045 203.762 95.0045 190.224C95.0045 176.686 105.987 165.711 119.535 165.711C133.083 165.711 144.066 176.686 144.066 190.224C144.066 203.762 133.083 214.737 119.535 214.737Z" fill="#233A4C"/>
<path d="M119.535 211.398C107.832 211.398 98.3455 201.918 98.3455 190.224C98.3455 178.53 107.832 169.05 119.535 169.05C131.238 169.05 140.725 178.53 140.725 190.224C140.725 201.918 131.238 211.398 119.535 211.398Z" fill="#CFD6F5"/>
<path d="M106.438 173.605C103.587 177.211 101.879 181.751 101.879 186.692C101.879 198.385 111.368 207.867 123.069 207.867C128.014 207.867 132.558 206.16 136.166 203.311C132.29 208.223 126.291 211.398 119.535 211.398C107.834 211.398 98.3454 201.917 98.3454 190.224C98.3454 183.472 101.508 177.478 106.438 173.605Z" fill="#C3CCEE"/>
<path d="M79.4426 170.667C86.689 155.858 101.924 145.65 119.535 145.65C120.159 145.65 120.768 145.664 121.376 145.694C104.582 146.406 90.2082 156.392 83.2143 170.667C80.3187 176.573 78.7002 183.205 78.7002 190.224C78.7002 192.019 78.819 193.77 79.0269 195.506H75.2403C75.0324 193.77 74.9136 192.004 74.9136 190.224C74.9136 183.205 76.547 176.573 79.4278 170.667H79.4426Z" fill="#CFD6F5"/>
<path opacity="0.25" d="M47.532 140.59H332.843V142.029H47.532V140.59Z" fill="#11345B"/>
</g>
<defs>
<linearGradient id="paint0_linear_557_917" x1="428.5" y1="195.506" x2="428.5" y2="33.1453" gradientUnits="userSpaceOnUse">
<stop stop-color="#315EFB"/>
<stop offset="1" stop-color="#8698E3"/>
</linearGradient>
<linearGradient id="paint1_linear_557_917" x1="189.964" y1="0.634521" x2="189.964" y2="0.634521" gradientUnits="userSpaceOnUse">
<stop stop-color="#315EFB"/>
<stop offset="1" stop-color="#8698E3"/>
</linearGradient>
<linearGradient id="paint2_linear_557_917" x1="134.117" y1="193.414" x2="134.117" y2="0.664213" gradientUnits="userSpaceOnUse">
<stop stop-color="#315EFB"/>
<stop offset="1" stop-color="#8698E3"/>
</linearGradient>
<clipPath id="clip0_557_917">
<rect width="523" height="229" fill="white" transform="matrix(-1 0 0 1 523 0.634521)"/>
</clipPath>
</defs>
</svg>
