<svg width="44" height="44" viewBox="0 0 44 44" fill="none" xmlns="http://www.w3.org/2000/svg">
<g clip-path="url(#clip0_549_91)">
<path d="M28.0731 32.0532H16.5061V11.2665H28.0731V32.0532Z" fill="#FF5F00"/>
<path d="M17.2402 21.6607C17.2385 19.6589 17.6922 17.683 18.5669 15.8825C19.4417 14.082 20.7147 12.5041 22.2894 11.2682C20.3393 9.73571 17.9975 8.7827 15.5314 8.51812C13.0653 8.25355 10.5746 8.68808 8.3438 9.77206C6.113 10.856 4.23216 12.5457 2.91622 14.648C1.60027 16.7504 0.902313 19.1805 0.9021 21.6607C0.902576 24.1406 1.60062 26.5704 2.91648 28.6724C4.23233 30.7744 6.11293 32.4638 8.34341 33.5477C10.5739 34.6317 13.0643 35.0663 15.5301 34.802C17.9958 34.5377 20.3375 33.5851 22.2876 32.0531C20.7134 30.817 19.4409 29.2389 18.5665 27.4385C17.6921 25.638 17.2385 23.6623 17.2402 21.6607Z" fill="#EB001B"/>
<path d="M43.6769 21.6607C43.6766 24.1409 42.9787 26.571 41.6627 28.6733C40.3468 30.7757 38.466 32.4654 36.2352 33.5493C34.0044 34.6333 31.5136 35.0678 29.0476 34.8033C26.5815 34.5387 24.2396 33.5857 22.2896 32.0531C25.364 29.6328 27.3387 25.8776 27.3387 21.6607C27.3387 17.4438 25.364 13.6886 22.2896 11.2682C24.2396 9.73571 26.5815 8.7827 29.0476 8.51812C31.5136 8.25355 34.0044 8.68808 36.2352 9.77206C38.466 10.856 40.3468 12.5457 41.6627 14.648C42.9787 16.7504 43.6766 19.1805 43.6769 21.6607Z" fill="#F79E1B"/>
</g>
<defs>
<clipPath id="clip0_549_91">
<rect width="42.7746" height="42.7746" fill="white" transform="translate(0.9021 0.273376)"/>
</clipPath>
</defs>
</svg>
